<?xml version="1.0" encoding="UTF-8"?>
<svg id="Capa_1" data-name="Capa 1" xmlns="http://www.w3.org/2000/svg" viewBox="0 0 629.85 53.57">
  <defs>
    <style>
      .cls-1 {
        fill: #063;
      }
    </style>
  </defs>
  <path class="cls-1" d="M30.31,35.78c0,1.87-.2,3.84-.61,5.9-.41,2.06-1.16,3.98-2.27,5.76-1.1,1.78-2.66,3.24-4.68,4.39-2.02,1.15-4.61,1.73-7.78,1.73-4.13,0-7.43-1.03-9.9-3.1-2.47-2.06-4.16-4.78-5.08-8.14l8.35-2.38c.43,1.68,1.22,3.01,2.38,4,1.15.98,2.52,1.48,4.1,1.48,1.3,0,2.36-.24,3.2-.72.84-.48,1.49-1.16,1.94-2.05.46-.89.78-1.94.97-3.17.19-1.22.29-2.56.29-4V1.3h9.07v34.49Z"/>
  <path class="cls-1" d="M53.06,26.64c0-4.08.68-7.76,2.05-11.05,1.37-3.29,3.26-6.08,5.69-8.39,2.42-2.3,5.3-4.08,8.64-5.33,3.34-1.25,6.97-1.87,10.91-1.87s7.66.62,11.02,1.87c3.36,1.25,6.26,3.02,8.71,5.33,2.45,2.3,4.36,5.1,5.72,8.39,1.37,3.29,2.05,6.97,2.05,11.05s-.68,7.62-2.05,10.91c-1.37,3.29-3.28,6.12-5.72,8.5-2.45,2.38-5.35,4.22-8.71,5.54-3.36,1.32-7.03,1.98-11.02,1.98s-7.57-.66-10.91-1.98c-3.34-1.32-6.22-3.17-8.64-5.54-2.42-2.38-4.32-5.21-5.69-8.5-1.37-3.29-2.05-6.92-2.05-10.91ZM62.93,26.64c0,2.74.42,5.24,1.26,7.52.84,2.28,2.04,4.26,3.6,5.94,1.56,1.68,3.41,2.99,5.54,3.92,2.14.94,4.5,1.4,7.09,1.4s4.97-.47,7.13-1.4c2.16-.94,4.02-2.24,5.58-3.92,1.56-1.68,2.76-3.66,3.6-5.94.84-2.28,1.26-4.79,1.26-7.52s-.42-5.09-1.26-7.34c-.84-2.26-2.03-4.22-3.56-5.9-1.54-1.68-3.38-3-5.54-3.96-2.16-.96-4.56-1.44-7.2-1.44s-5.03.48-7.16,1.44c-2.14.96-3.97,2.28-5.51,3.96-1.54,1.68-2.72,3.65-3.56,5.9-.84,2.26-1.26,4.7-1.26,7.34Z"/>
  <path class="cls-1" d="M131.04,1.3h12.02l23.69,38.16h.14V1.3h9.07v50.98h-11.52l-24.19-39.38h-.14v39.38h-9.07V1.3Z"/>
  <path class="cls-1" d="M201.6,1.3h9.07v50.98h-9.07V1.3Z"/>
  <path class="cls-1" d="M252.29,1.3h7.85l21.96,50.98h-10.37l-4.75-11.66h-22.1l-4.61,11.66h-10.15L252.29,1.3ZM263.81,32.83l-7.85-20.74-7.99,20.74h15.84Z"/>
  <path class="cls-1" d="M332.64,1.3h9.07v42.91h21.67v8.06h-30.74V1.3Z"/>
  <path class="cls-1" d="M383.83,1.3h9.07v50.98h-9.07V1.3Z"/>
  <path class="cls-1" d="M412.2,1.3h10.15l14.04,39.24h.29l14.18-39.24h9.79l-20.45,50.98h-7.85L412.2,1.3Z"/>
  <path class="cls-1" d="M479.95,1.3h9.07v50.98h-9.07V1.3Z"/>
  <path class="cls-1" d="M514.65,1.3h12.02l23.69,38.16h.14V1.3h9.07v50.98h-11.52l-24.19-39.38h-.14v39.38h-9.07V1.3Z"/>
  <path class="cls-1" d="M629.85,49.61c-2.59,1.25-5.44,2.22-8.53,2.92-3.1.7-6.66,1.04-10.69,1.04s-7.9-.66-11.3-1.98c-3.41-1.32-6.34-3.17-8.78-5.54-2.45-2.38-4.36-5.21-5.72-8.5s-2.05-6.92-2.05-10.91.71-7.76,2.12-11.05c1.42-3.29,3.36-6.08,5.83-8.39,2.47-2.3,5.39-4.08,8.75-5.33,3.36-1.25,7.01-1.87,10.94-1.87s7.81.59,11.2,1.76c3.38,1.18,6.11,2.72,8.17,4.64l-6.26,6.77c-1.3-1.44-3.11-2.66-5.44-3.67-2.33-1.01-4.86-1.51-7.6-1.51s-5.12.48-7.31,1.44c-2.18.96-4.04,2.28-5.58,3.96-1.54,1.68-2.72,3.65-3.56,5.9s-1.26,4.7-1.26,7.34.42,5.24,1.26,7.52c.84,2.28,2.04,4.26,3.6,5.94,1.56,1.68,3.46,2.99,5.69,3.92,2.23.94,4.76,1.4,7.6,1.4,3.89,0,7.27-.6,10.15-1.8v-12.96h-10.73v-7.49h19.51v26.42Z"/>
</svg>