<?xml version="1.0" encoding="UTF-8"?>
<svg id="Capa_1" data-name="Capa 1" xmlns="http://www.w3.org/2000/svg" viewBox="0 0 626.54 616.76">
  <defs>
    <style>
      .cls-1 {
        fill: #063;
      }
    </style>
  </defs>
  <path class="cls-1" d="M544.25,447.02c5.22,3,11.15,5.85,17.79,8.54,6.64,2.68,13.04,4.58,19.21,5.69,6.17,1.1,12.96,1.66,20.4,1.66s15.1-.95,23-2.85l1.9,4.74c-17.71,8.54-35.57,12.81-53.6,12.81-41.43,0-83.64-22.93-126.64-68.77l-224.82-238.57v193.99c0,7.91,2.85,14.63,8.54,20.16,5.69,5.54,12.49,8.3,20.39,8.3h9.01v4.74H115.73v-4.74h8.54c8.22,0,15.18-2.76,20.87-8.3,5.69-5.53,8.54-12.41,8.54-20.63V97.7c-15.5-17.7-27.2-30.12-35.1-37.23-7.91-7.11-14.94-13.04-21.11-17.79-6.17-4.74-12.09-8.69-17.79-11.86-13.28-7.59-23.95-12.01-32.02-13.28-8.06-1.26-15.65-1.9-22.77-1.9s-14.78,1.42-23,4.27l-1.9-4.74C17.39,5.06,35.26,0,53.6,0c39.84,0,82.05,23.71,126.64,71.14l212.01,225.29V99.13c-.32-8.22-3.32-15.1-9.01-20.63-5.69-5.53-12.5-8.3-20.4-8.3h-8.54v-4.74h143.71v4.74h-9.01c-7.91,0-14.7,2.77-20.39,8.3-5.69,5.54-8.7,12.26-9.01,20.16v269.87l7.59,7.59c1.9,1.9,4.82,5.14,8.77,9.72,3.95,4.59,7.51,8.54,10.67,11.86,3.16,3.32,7.19,7.51,12.09,12.57,4.9,5.05,9.49,9.49,13.75,13.28,4.27,3.79,9.32,7.9,15.18,12.33,5.85,4.42,11.38,8.14,16.6,11.15Z"/>
  <g>
    <g>
      <path class="cls-1" d="M184.5,571.44h7.87v37.21h18.79v6.99h-26.66v-44.2Z"/>
      <path class="cls-1" d="M228.89,571.44h7.87v44.2h-7.87v-44.2Z"/>
      <path class="cls-1" d="M253.49,571.44h8.8l12.17,34.03h.25l12.3-34.03h8.49l-17.73,44.2h-6.81l-17.48-44.2Z"/>
      <path class="cls-1" d="M312.24,571.44h7.87v44.2h-7.87v-44.2Z"/>
      <path class="cls-1" d="M342.33,571.44h10.43l20.54,33.09h.12v-33.09h7.87v44.2h-9.99l-20.98-34.15h-.12v34.15h-7.87v-44.2Z"/>
      <path class="cls-1" d="M442.22,613.33c-2.25,1.08-4.71,1.92-7.4,2.53-2.68.6-5.78.91-9.27.91s-6.85-.57-9.8-1.72c-2.96-1.14-5.49-2.75-7.62-4.81-2.12-2.06-3.78-4.52-4.96-7.37-1.19-2.85-1.78-6-1.78-9.46s.61-6.73,1.84-9.58c1.23-2.85,2.91-5.28,5.06-7.27s4.67-3.54,7.59-4.62c2.91-1.08,6.08-1.62,9.49-1.62s6.77.51,9.71,1.53c2.93,1.02,5.3,2.36,7.09,4.03l-5.43,5.87c-1.12-1.25-2.7-2.31-4.71-3.18-2.02-.88-4.21-1.31-6.59-1.31s-4.44.42-6.34,1.25c-1.89.83-3.51,1.98-4.84,3.43-1.33,1.46-2.36,3.16-3.09,5.12-.73,1.96-1.09,4.08-1.09,6.37s.36,4.55,1.09,6.52c.73,1.98,1.77,3.69,3.12,5.15s3,2.59,4.93,3.4,4.13,1.22,6.59,1.22c3.37,0,6.31-.52,8.8-1.56v-11.24h-9.3v-6.49h16.92v22.91Z"/>
    </g>
    <g>
      <path class="cls-1" d="M208.15,536.95c0,1.74-.19,3.57-.57,5.49-.38,1.92-1.08,3.71-2.11,5.36-1.03,1.65-2.48,3.01-4.35,4.08-1.87,1.07-4.28,1.61-7.23,1.61-3.84,0-6.91-.96-9.2-2.88-2.3-1.92-3.87-4.44-4.72-7.56l7.76-2.21c.4,1.56,1.14,2.8,2.21,3.71,1.07.92,2.34,1.37,3.82,1.37,1.2,0,2.2-.22,2.98-.67.78-.45,1.38-1.08,1.81-1.91.42-.83.73-1.81.9-2.95.18-1.14.27-2.38.27-3.71v-31.79h8.43v32.06Z"/>
      <path class="cls-1" d="M229.3,528.44c0-3.79.64-7.22,1.91-10.27,1.27-3.06,3.03-5.66,5.29-7.8,2.25-2.14,4.93-3.79,8.03-4.95,3.1-1.16,6.48-1.74,10.14-1.74s7.12.58,10.24,1.74c3.12,1.16,5.82,2.81,8.1,4.95,2.28,2.14,4.05,4.74,5.32,7.8,1.27,3.06,1.91,6.48,1.91,10.27s-.64,7.08-1.91,10.14c-1.27,3.06-3.05,5.69-5.32,7.9s-4.98,3.93-8.1,5.15c-3.12,1.23-6.54,1.84-10.24,1.84s-7.04-.61-10.14-1.84c-3.1-1.23-5.78-2.95-8.03-5.15-2.25-2.21-4.02-4.84-5.29-7.9-1.27-3.06-1.91-6.44-1.91-10.14ZM238.47,528.44c0,2.54.39,4.88,1.17,7,.78,2.12,1.9,3.96,3.35,5.52,1.45,1.56,3.17,2.78,5.15,3.65,1.99.87,4.18,1.3,6.59,1.3s4.62-.43,6.63-1.3c2.01-.87,3.74-2.09,5.19-3.65,1.45-1.56,2.57-3.4,3.35-5.52.78-2.12,1.17-4.45,1.17-7s-.39-4.73-1.17-6.83c-.78-2.1-1.89-3.93-3.31-5.49-1.43-1.56-3.15-2.79-5.15-3.68-2.01-.89-4.24-1.34-6.69-1.34s-4.68.45-6.66,1.34c-1.99.89-3.69,2.12-5.12,3.68-1.43,1.56-2.53,3.39-3.31,5.49-.78,2.1-1.17,4.37-1.17,6.83Z"/>
      <path class="cls-1" d="M301.79,504.88h11.18l22.02,35.48h.13v-35.48h8.43v47.39h-10.71l-22.49-36.61h-.13v36.61h-8.43v-47.39Z"/>
      <path class="cls-1" d="M367.39,504.88h8.43v47.39h-8.43v-47.39Z"/>
      <path class="cls-1" d="M414.51,504.88h7.3l20.42,47.39h-9.64l-4.42-10.84h-20.55l-4.28,10.84h-9.44l20.62-47.39ZM425.22,534.2l-7.3-19.28-7.43,19.28h14.73Z"/>
    </g>
  </g>
</svg>