<?xml version="1.0" encoding="UTF-8"?>
<svg id="Capa_1" data-name="Capa 1" xmlns="http://www.w3.org/2000/svg" viewBox="0 0 262.25 113.08">
  <defs>
    <style>
      .cls-1 {
        fill: #063;
      }
    </style>
  </defs>
  <g>
    <path class="cls-1" d="M4.54,67.76h7.87v37.21h18.79v6.99H4.54v-44.2Z"/>
    <path class="cls-1" d="M48.92,67.76h7.87v44.2h-7.87v-44.2Z"/>
    <path class="cls-1" d="M73.52,67.76h8.8l12.17,34.03h.25l12.3-34.03h8.49l-17.73,44.2h-6.81l-17.48-44.2Z"/>
    <path class="cls-1" d="M132.27,67.76h7.87v44.2h-7.87v-44.2Z"/>
    <path class="cls-1" d="M162.36,67.76h10.43l20.54,33.09h.12v-33.09h7.87v44.2h-9.99l-20.98-34.15h-.12v34.15h-7.87v-44.2Z"/>
    <path class="cls-1" d="M262.25,109.65c-2.25,1.08-4.71,1.92-7.4,2.53-2.68.6-5.78.91-9.27.91s-6.85-.57-9.8-1.72c-2.96-1.14-5.49-2.75-7.62-4.81-2.12-2.06-3.78-4.52-4.96-7.37-1.19-2.85-1.78-6-1.78-9.46s.61-6.73,1.84-9.58c1.23-2.85,2.91-5.28,5.06-7.27s4.67-3.54,7.59-4.62c2.91-1.08,6.08-1.62,9.49-1.62s6.77.51,9.71,1.53c2.93,1.02,5.3,2.36,7.09,4.03l-5.43,5.87c-1.12-1.25-2.7-2.31-4.71-3.18-2.02-.88-4.21-1.31-6.59-1.31s-4.44.42-6.34,1.25c-1.89.83-3.51,1.98-4.84,3.43-1.33,1.46-2.36,3.16-3.09,5.12-.73,1.96-1.09,4.08-1.09,6.37s.36,4.55,1.09,6.52c.73,1.98,1.77,3.69,3.12,5.15s3,2.59,4.93,3.4,4.13,1.22,6.59,1.22c3.37,0,6.31-.52,8.8-1.56v-11.24h-9.3v-6.49h16.92v22.91Z"/>
  </g>
  <g>
    <path class="cls-1" d="M28.18,33.27c0,1.74-.19,3.57-.57,5.49-.38,1.92-1.08,3.71-2.11,5.36-1.03,1.65-2.48,3.01-4.35,4.08-1.87,1.07-4.28,1.61-7.23,1.61-3.84,0-6.91-.96-9.2-2.88-2.3-1.92-3.87-4.44-4.72-7.56l7.76-2.21c.4,1.56,1.14,2.8,2.21,3.71,1.07.92,2.34,1.37,3.82,1.37,1.2,0,2.2-.22,2.98-.67.78-.45,1.38-1.08,1.81-1.91.42-.83.73-1.81.9-2.95.18-1.14.27-2.38.27-3.71V1.21h8.43v32.06Z"/>
    <path class="cls-1" d="M49.33,24.77c0-3.79.64-7.22,1.91-10.27,1.27-3.06,3.03-5.66,5.29-7.8,2.25-2.14,4.93-3.79,8.03-4.95,3.1-1.16,6.48-1.74,10.14-1.74s7.12.58,10.24,1.74c3.12,1.16,5.82,2.81,8.1,4.95,2.28,2.14,4.05,4.74,5.32,7.8,1.27,3.06,1.91,6.48,1.91,10.27s-.64,7.08-1.91,10.14c-1.27,3.06-3.05,5.69-5.32,7.9s-4.98,3.93-8.1,5.15c-3.12,1.23-6.54,1.84-10.24,1.84s-7.04-.61-10.14-1.84c-3.1-1.23-5.78-2.95-8.03-5.15-2.25-2.21-4.02-4.84-5.29-7.9-1.27-3.06-1.91-6.44-1.91-10.14ZM58.5,24.77c0,2.54.39,4.88,1.17,7,.78,2.12,1.9,3.96,3.35,5.52,1.45,1.56,3.17,2.78,5.15,3.65,1.99.87,4.18,1.3,6.59,1.3s4.62-.43,6.63-1.3c2.01-.87,3.74-2.09,5.19-3.65,1.45-1.56,2.57-3.4,3.35-5.52.78-2.12,1.17-4.45,1.17-7s-.39-4.73-1.17-6.83c-.78-2.1-1.89-3.93-3.31-5.49-1.43-1.56-3.15-2.79-5.15-3.68-2.01-.89-4.24-1.34-6.69-1.34s-4.68.45-6.66,1.34c-1.99.89-3.69,2.12-5.12,3.68-1.43,1.56-2.53,3.39-3.31,5.49-.78,2.1-1.17,4.37-1.17,6.83Z"/>
    <path class="cls-1" d="M121.82,1.21h11.18l22.02,35.48h.13V1.21h8.43v47.39h-10.71l-22.49-36.61h-.13v36.61h-8.43V1.21Z"/>
    <path class="cls-1" d="M187.42,1.21h8.43v47.39h-8.43V1.21Z"/>
    <path class="cls-1" d="M234.54,1.21h7.3l20.42,47.39h-9.64l-4.42-10.84h-20.55l-4.28,10.84h-9.44L234.54,1.21ZM245.25,30.52l-7.3-19.28-7.43,19.28h14.73Z"/>
  </g>
</svg>