<?xml version="1.0" encoding="UTF-8"?>
<svg id="Capa_1" data-name="Capa 1" xmlns="http://www.w3.org/2000/svg" viewBox="0 0 626.54 477.62">
  <defs>
    <style>
      .cls-1 {
        fill: #063;
      }
    </style>
  </defs>
  <path class="cls-1" d="M544.25,447.02c5.22,3,11.15,5.85,17.79,8.54,6.64,2.68,13.04,4.58,19.21,5.69,6.17,1.1,12.96,1.66,20.4,1.66s15.1-.95,23-2.85l1.9,4.74c-17.71,8.54-35.57,12.81-53.6,12.81-41.43,0-83.64-22.93-126.64-68.77l-224.82-238.57v193.99c0,7.91,2.85,14.63,8.54,20.16,5.69,5.54,12.49,8.3,20.39,8.3h9.01v4.74H115.73v-4.74h8.54c8.22,0,15.18-2.76,20.87-8.3,5.69-5.53,8.54-12.41,8.54-20.63V97.7c-15.5-17.7-27.2-30.12-35.1-37.23-7.91-7.11-14.94-13.04-21.11-17.79-6.17-4.74-12.09-8.69-17.79-11.86-13.28-7.59-23.95-12.01-32.02-13.28-8.06-1.26-15.65-1.9-22.77-1.9s-14.78,1.42-23,4.27l-1.9-4.74C17.39,5.06,35.26,0,53.6,0c39.84,0,82.05,23.71,126.64,71.14l212.01,225.29V99.13c-.32-8.22-3.32-15.1-9.01-20.63-5.69-5.53-12.5-8.3-20.4-8.3h-8.54v-4.74h143.71v4.74h-9.01c-7.91,0-14.7,2.77-20.39,8.3-5.69,5.54-8.7,12.26-9.01,20.16v269.88l7.59,7.59c1.9,1.9,4.82,5.14,8.77,9.72,3.95,4.59,7.51,8.54,10.67,11.86,3.16,3.32,7.19,7.51,12.09,12.57,4.9,5.05,9.49,9.49,13.75,13.28,4.27,3.79,9.32,7.9,15.18,12.33,5.85,4.42,11.38,8.14,16.6,11.15Z"/>
</svg>